<?xml version="1.0" standalone="no"?>
<!DOCTYPE svg PUBLIC "-//W3C//DTD SVG 20010904//EN"
 "http://www.w3.org/TR/2001/REC-SVG-20010904/DTD/svg10.dtd">
<svg version="1.0" xmlns="http://www.w3.org/2000/svg"
 width="500.000000pt" height="500.000000pt" viewBox="0 0 500.000000 500.000000"
 preserveAspectRatio="xMidYMid meet">

<g transform="translate(0.000000,500.000000) scale(0.100000,-0.100000)"
fill="#000000" stroke="none">
<path d="M2578 3271 c-9 -14 -19 -18 -39 -14 -24 4 -28 1 -39 -31 -6 -20 -18
-36 -26 -36 -8 0 -24 -20 -35 -45 -11 -24 -24 -47 -30 -51 -6 -3 -9 -19 -5
-34 5 -30 -8 -42 -49 -44 -30 -2 -30 -38 -1 -85 29 -46 33 -59 11 -41 -20 16
-45 5 -45 -20 0 -13 -7 -20 -20 -20 -11 0 -23 -7 -26 -15 -8 -21 14 -73 38
-89 19 -14 19 -14 -4 -21 -81 -22 -89 -56 -29 -116 38 -39 38 -57 -1 -51 -11
2 -22 -7 -29 -22 -6 -13 -20 -27 -30 -29 -11 -3 -19 -14 -19 -26 0 -26 55 -89
85 -97 21 -5 22 -11 28 -157 4 -84 11 -172 16 -197 5 -25 8 -46 7 -48 -2 -1
-26 33 -54 75 -124 190 -202 298 -214 298 -35 0 -8 -131 48 -231 20 -36 59
-93 88 -127 54 -65 51 -66 -31 -4 -29 21 -58 37 -64 35 -16 -5 10 -30 102 -94
114 -80 157 -133 202 -250 43 -111 64 -147 77 -139 5 3 -2 31 -16 63 -76 169
-81 226 -28 352 52 122 71 186 79 262 9 82 0 138 -21 138 -31 0 -119 -226
-131 -335 l-7 -60 -7 40 c-12 67 -31 353 -24 365 3 5 14 10 24 10 21 0 111 66
111 81 0 5 -15 25 -33 44 -31 32 -35 33 -55 19 -21 -14 -22 -14 -22 10 0 15 7
27 19 31 28 9 101 64 101 76 0 6 -9 13 -19 16 -12 3 -17 11 -14 19 3 8 0 20
-6 28 -9 10 -3 15 29 25 46 14 56 25 37 43 -8 7 -12 20 -9 30 2 10 -1 25 -8
33 -11 13 -8 15 14 15 16 0 29 7 33 18 4 9 11 20 17 24 7 4 5 13 -6 25 -8 10
-13 24 -11 31 3 7 -1 19 -7 27 -11 13 -7 15 19 15 19 0 34 6 38 15 9 25 -1 27
-48 11 -24 -8 -45 -13 -48 -10 -10 10 20 27 56 33 27 5 39 12 41 26 2 11 16
31 32 45 36 31 50 77 26 86 -12 5 -14 10 -6 20 7 7 10 25 8 41 -2 22 -9 29
-30 31 -19 2 -31 -3 -40 -17z m23 -34 c-8 -8 -11 -7 -11 4 0 20 13 34 18 19 3
-7 -1 -17 -7 -23z m-71 -42 c0 -8 -2 -15 -4 -15 -2 0 -6 7 -10 15 -3 8 -1 15
4 15 6 0 10 -7 10 -15z m70 -14 c0 -5 -7 -11 -15 -15 -15 -5 -20 5 -8 17 9 10
23 9 23 -2z m-93 -58 c-3 -10 -5 -4 -5 12 0 17 2 24 5 18 2 -7 2 -21 0 -30z
m-40 -5 c-3 -7 -5 -2 -5 12 0 14 2 19 5 13 2 -7 2 -19 0 -25z m130 16 c-3 -3
-12 -4 -19 -1 -8 3 -5 6 6 6 11 1 17 -2 13 -5z m-147 -73 c17 -33 12 -46 -10
-26 -21 19 -27 45 -10 45 5 0 14 -9 20 -19z m-56 -121 l7 -25 -20 24 c-25 27
-31 66 -7 41 8 -8 17 -26 20 -40z m41 -10 c-4 -17 -9 -29 -12 -26 -3 2 -2 19
2 36 4 17 9 29 12 26 3 -2 2 -19 -2 -36z m84 26 c-2 -2 -15 -9 -29 -16 -23
-12 -24 -12 -11 3 7 10 20 17 29 17 8 0 13 -2 11 -4z m-8 -53 c-18 -4 -21 -7
-10 -13 22 -14 7 -19 -31 -11 -32 6 -34 8 -15 19 11 6 34 11 50 10 26 -1 27
-1 6 -5z m-41 -47 c0 -2 -7 -6 -15 -10 -8 -3 -15 -1 -15 4 0 6 7 10 15 10 8 0
15 -2 15 -4z m-138 -63 c15 -15 28 -34 28 -42 0 -10 -12 -3 -35 19 -33 32 -43
50 -28 50 4 0 20 -12 35 -27z m101 -24 c-5 -20 -29 -36 -38 -27 -6 6 24 48 35
48 4 0 6 -9 3 -21z m40 -16 c-7 -2 -19 -2 -25 0 -7 3 -2 5 12 5 14 0 19 -2 13
-5z m-124 -133 c0 -8 -6 0 -14 19 -8 18 -15 36 -15 40 1 13 29 -45 29 -59z
m-40 10 c12 -18 13 -22 2 -19 -8 3 -21 16 -30 29 -12 18 -13 22 -2 19 8 -3 21
-16 30 -29z m106 -20 c-10 -11 -28 -20 -39 -20 -20 1 -20 1 3 20 13 11 30 20
39 20 13 0 12 -3 -3 -20z m-130 -90 c3 -5 1 -10 -4 -10 -6 0 -11 5 -11 10 0 6
2 10 4 10 3 0 8 -4 11 -10z m61 -47 c-10 -10 -19 5 -10 18 6 11 8 11 12 0 2
-7 1 -15 -2 -18z m-36 -5 c0 -18 -2 -20 -9 -8 -6 8 -7 18 -5 22 9 14 14 9 14
-14z m-46 -13 c31 -28 36 -51 7 -36 -21 12 -56 61 -43 61 5 0 21 -11 36 -25z
m125 -18 c8 -11 5 -16 -15 -25 -14 -7 -27 -12 -29 -12 -10 0 -5 26 7 38 15 15
23 15 37 -1z m118 -189 c-3 -8 -6 -5 -6 6 -1 11 2 17 5 13 3 -3 4 -12 1 -19z
m-227 -228 c17 -27 45 -88 37 -80 -36 36 -197 286 -197 306 0 6 129 -175 160
-226z m176 159 c-19 -82 -54 -180 -55 -154 -1 46 54 233 66 222 2 -3 -3 -33
-11 -68z m-310 -26 c20 -38 51 -88 67 -113 23 -33 25 -40 9 -26 -34 29 -135
206 -118 206 3 0 21 -30 42 -67z m344 -1 c-24 -79 -63 -183 -67 -179 -2 3 12
53 32 113 19 59 36 115 36 123 1 12 2 12 6 -2 2 -9 -1 -34 -7 -55z"/>
<path d="M2909 2843 c-6 -16 -13 -40 -16 -55 -3 -15 -13 -30 -22 -33 -11 -3
-32 -52 -63 -147 -26 -79 -50 -154 -53 -168 -4 -14 -15 -47 -25 -75 -10 -27
-58 -171 -106 -320 -81 -249 -89 -278 -94 -373 -6 -120 2 -127 52 -50 18 28
41 63 50 77 10 14 24 46 32 71 8 25 56 164 106 310 51 146 102 297 114 335 45
143 81 235 94 235 6 0 12 -1 12 -3 0 -8 -109 -326 -120 -350 -10 -21 -11 -30
-2 -39 16 -16 20 -10 36 48 7 27 37 116 65 199 51 146 52 149 32 165 -28 22
-30 48 -8 108 18 51 18 54 1 73 -9 10 -30 19 -46 19 -22 0 -31 -6 -39 -27z
m66 -13 c8 -13 -24 -100 -37 -100 -5 0 -4 -9 2 -20 13 -24 10 -25 -38 -3 l-37
16 30 7 c17 4 25 8 18 9 -9 1 -9 11 2 42 8 22 17 44 20 50 8 12 32 12 40 -1z
m-70 -154 l34 -15 -71 -211 c-39 -117 -76 -214 -83 -216 -6 -3 -23 0 -37 5
-26 10 -26 10 -12 58 32 108 127 393 131 393 2 0 19 -6 38 -14z m-139 -472
c18 -15 18 -15 -11 -9 -37 8 -57 25 -29 25 11 0 29 -7 40 -16z m-19 -37 l22
-12 -38 -110 c-21 -61 -46 -134 -55 -163 -17 -50 -20 -53 -45 -47 -14 3 -30
10 -34 14 -4 4 4 39 18 76 14 37 32 95 41 129 32 123 45 139 91 113z m-129
-353 c12 -4 22 -11 22 -16 0 -10 -39 -1 -54 13 -12 11 -1 11 32 3z m-4 -40
c23 -9 20 -22 -19 -84 l-35 -55 0 57 c0 84 10 99 54 82z"/>
</g>
</svg>
